<svg width="650" height="447" viewBox="0 0 650 447" fill="none" xmlns="http://www.w3.org/2000/svg">
<g clip-path="url(#clip0_5_6)">
<path d="M649.281 -1.18285H0.83902V448.437H649.281V-1.18285Z" fill="#1F1F1F"/>
<path d="M386.207 44.3979L166.883 116.659L240.469 332.033L459.793 259.772L386.207 44.3979Z" fill="#F24E1E"/>
<path d="M250.824 178.824C250.824 178.072 251.044 177.445 251.483 176.944C251.937 176.442 252.611 176.192 253.504 176.192C254.398 176.192 255.072 176.442 255.526 176.944C255.996 177.445 256.231 178.072 256.231 178.824C256.231 179.545 255.996 180.149 255.526 180.635C255.072 181.12 254.398 181.363 253.504 181.363C252.611 181.363 251.937 181.12 251.483 180.635C251.044 180.149 250.824 179.545 250.824 178.824ZM264.295 184.043H260.557L274.85 146.877H278.564L264.295 184.043ZM294.033 165.848C290.162 164.735 287.341 163.372 285.57 161.757C283.814 160.127 282.937 158.121 282.937 155.739C282.937 153.044 284.01 150.818 286.157 149.063C288.32 147.292 291.125 146.406 294.573 146.406C296.924 146.406 299.016 146.861 300.85 147.77C302.699 148.679 304.126 149.933 305.129 151.531C306.147 153.13 306.657 154.877 306.657 156.774H302.12C302.12 154.705 301.461 153.083 300.145 151.907C298.828 150.716 296.971 150.121 294.573 150.121C292.348 150.121 290.608 150.614 289.355 151.602C288.116 152.573 287.497 153.929 287.497 155.669C287.497 157.064 288.085 158.247 289.261 159.218C290.452 160.174 292.465 161.052 295.302 161.851C298.154 162.651 300.38 163.536 301.979 164.508C303.593 165.464 304.784 166.584 305.552 167.87C306.335 169.155 306.727 170.667 306.727 172.407C306.727 175.181 305.646 177.406 303.483 179.083C301.32 180.744 298.429 181.575 294.808 181.575C292.458 181.575 290.264 181.128 288.226 180.235C286.189 179.326 284.614 178.088 283.501 176.521C282.404 174.953 281.855 173.175 281.855 171.184H286.392C286.392 173.253 287.153 174.891 288.673 176.097C290.209 177.289 292.254 177.884 294.808 177.884C297.191 177.884 299.016 177.398 300.286 176.427C301.555 175.455 302.19 174.131 302.19 172.454C302.19 170.777 301.602 169.484 300.427 168.575C299.252 167.65 297.12 166.741 294.033 165.848ZM322.619 165.848C318.748 164.735 315.927 163.372 314.156 161.757C312.401 160.127 311.523 158.121 311.523 155.739C311.523 153.044 312.596 150.818 314.744 149.063C316.906 147.292 319.712 146.406 323.16 146.406C325.51 146.406 327.603 146.861 329.436 147.77C331.286 148.679 332.712 149.933 333.715 151.531C334.733 153.13 335.243 154.877 335.243 156.774H330.706C330.706 154.705 330.047 153.083 328.731 151.907C327.415 150.716 325.557 150.121 323.16 150.121C320.934 150.121 319.194 150.614 317.941 151.602C316.703 152.573 316.084 153.929 316.084 155.669C316.084 157.064 316.671 158.247 317.847 159.218C319.038 160.174 321.052 161.052 323.888 161.851C326.741 162.651 328.966 163.536 330.565 164.508C332.179 165.464 333.37 166.584 334.138 167.87C334.922 169.155 335.313 170.667 335.313 172.407C335.313 175.181 334.232 177.406 332.069 179.083C329.906 180.744 327.015 181.575 323.395 181.575C321.044 181.575 318.85 181.128 316.812 180.235C314.775 179.326 313.2 178.088 312.087 176.521C310.99 174.953 310.442 173.175 310.442 171.184H314.979C314.979 173.253 315.739 174.891 317.259 176.097C318.795 177.289 320.84 177.884 323.395 177.884C325.777 177.884 327.603 177.398 328.872 176.427C330.142 175.455 330.776 174.131 330.776 172.454C330.776 170.777 330.189 169.484 329.013 168.575C327.838 167.65 325.706 166.741 322.619 165.848ZM365.216 146.877V170.15C365.2 173.378 364.182 176.019 362.16 178.072C360.154 180.125 357.427 181.277 353.979 181.528L352.78 181.575C349.034 181.575 346.049 180.564 343.823 178.542C341.598 176.521 340.47 173.739 340.438 170.197V146.877H344.905V170.056C344.905 172.532 345.587 174.46 346.95 175.839C348.313 177.202 350.257 177.884 352.78 177.884C355.335 177.884 357.286 177.202 358.634 175.839C359.997 174.475 360.679 172.556 360.679 170.079V146.877H365.216Z" fill="white"/>
<path d="M593.186 139C593.186 139.235 593.066 139.353 593.066 139.588H593.186C587.913 174.428 554.232 198.321 517.914 193.025C481.597 187.728 456.426 155.242 461.7 120.403H461.82C461.82 120.167 461.82 120.05 461.82 119.814L422.146 114.047C413.756 169.837 454.149 221.979 512.401 230.454C570.653 238.928 624.59 200.558 633.1 144.649L593.186 139Z" fill="#404040"/>
<path d="M308.28 235.044L102.121 295.425L258.418 440.551L308.28 235.044Z" fill="#404040"/>
<path d="M172.1 107.456L158.463 111.948L163.038 125.34L176.675 120.847L172.1 107.456Z" stroke="#F7F5F5" stroke-miterlimit="10"/>
<path d="M390.744 35.4329L377.107 39.9258L381.682 53.317L395.319 48.8241L390.744 35.4329Z" stroke="#F7F5F5" stroke-miterlimit="10"/>
<path d="M465.518 250.364L451.882 254.857L456.457 268.248L470.094 263.755L465.518 250.364Z" stroke="#F7F5F5" stroke-miterlimit="10"/>
</g>
<defs>
<clipPath id="clip0_5_6">
<rect width="650" height="446.559" fill="white" transform="translate(0 0.347275)"/>
</clipPath>
</defs>
</svg>
